<svg id="图层_1" data-name="图层 1" xmlns="http://www.w3.org/2000/svg" viewBox="0 0 395.56 395.56"><defs><style>.cls-1{fill:#db9fc2;}.cls-2{fill:#040000;}.cls-3{fill:#5f5f5f;}.cls-4{fill:#e791bb;}.cls-5{fill:#231815;}.cls-6{fill:none;stroke:#231815;stroke-linecap:round;stroke-miterlimit:10;stroke-width:0.5px;}.cls-7{fill:#fff;}</style></defs><path class="cls-1" d="M173.48,254.49a13,13,0,0,1,1.31-1.67,25,25,0,0,0,1.79-2.18c15.41-20.72,32.92-39.23,54-55.27-11.48-3.94-21.65-8.49-29-18-1.88-2.44-5.14-5-4.14-8.07,1.1-3.39,5.13-2.3,8-2.4,5.82-.21,11.66-.06,19.4-.06-7.16-6.08-13.95-8.3-20.37-11.25-35.54-16.32-69.37-35.72-98-64.4C93,77.59,81.3,62.83,82.6,40.89c.06-1,.17-1.9.46-5.14C94,64.93,112.48,83.88,136.13,99.56c1.71-13.38,4.66-25.52,14.09-36.9-4.2,14.65-3.93,27.31-.32,39.92,1,3.69,2.41,6.93,6.1,8.51,15.81,6.76,31.58,13.64,48.91,21.14-8.63-22.47-14-44-13.44-66.78S205.38,10,216.41-9.7c-2,19.86-15.13,51.66-14.12,72.78,11.78-10.35,23.06-23,38.19-25.06l-.07-.08C228.63,49.36,216.34,60.22,209,76.05c-2.71,5.86-3.62,11.37-2.15,17.76a174.49,174.49,0,0,0,7,23.71c5.92,15.32,14.55,26.76,29.6,33.74,24.78,11.5,48.92,24.83,70.19,43.28a99.18,99.18,0,0,1,21,24.55,7.82,7.82,0,0,1-1,9.21c-10.05,11.49-21.85,11.95-36.26,7.92-5.51-1.54-11.15-4.87-16.45-7-4.81-2-6.91.26-8.51,4.5-5.54,14.6-7.8,36.33-7.5,52a117.27,117.27,0,0,0,6.64,37.7c1.75,4.87-.21,5.79-4.28,6.17-42.17,4-79.29-14.07-104.26-43.76l-.06-.07a12.33,12.33,0,0,1-.63-15.07Z" transform="translate(-48.41 9.7)"/><path class="cls-1" d="M186.36,76.48c-4.78,16.9-9.07,33.38,8.53,45.84-16-2.22-27.2-11.49-37-22.87-3.55-4.13-2.28-9.85-2.37-16.57l18.52,16.91C177.41,91.34,180.08,82.81,186.36,76.48Z" transform="translate(-48.41 9.7)"/><path class="cls-1" d="M142,86.93c-14.76-20.35-20.78-40.78-16.91-64.32,2.35,18.7,9.59,35,19.93,49.94C148.38,77.46,142.41,80.4,142,86.93Z" transform="translate(-48.41 9.7)"/><polygon class="cls-1" points="192.07 47.73 192.29 47.29 192 47.65 192.07 47.73"/><path class="cls-1" d="M247.8,146l.58.19-.48-.3Z" transform="translate(-48.41 9.7)"/><path class="cls-2" d="M311.15,13.59l1.49,45.09a2,2,0,0,1-.37,1.25L291.21,87.72l-.12.18-7.95,13.7a2.09,2.09,0,0,0-.26.88l-1.28,18.14a2,2,0,0,1-.32,1l-7.12,10.73a1.27,1.27,0,0,1-.4.4L236.57,157l-.11.07-4,2.07a1.94,1.94,0,0,0-.48,2.72l16.63,23a5,5,0,0,0,2.58,1.92l8.6,2.54a3.7,3.7,0,0,0,1.62.09l16-2.87L310,180.77a1,1,0,0,1,.34,0l16.77,2.74a1.14,1.14,0,0,1,.39.14l14.15,8.54a1.43,1.43,0,0,1,.48.47l10.14,15.86a2,2,0,0,1,.3.9l2.3,24.94a1.82,1.82,0,0,1,0,.33l-1.32,21.74a2.1,2.1,0,0,1-.09.5l-4.56,14.38a2.17,2.17,0,0,1-.19.41l-12.06,19.67a1.89,1.89,0,0,1-.2.27l-9.75,10.14-.12.12-10.4,8.45a1.48,1.48,0,0,1-.27.16L302,316.87l-.22.08-21.13,4.47-.21,0-12,1.11c-.13,0-5.17.72-5.3.67l-2.9,0,1.78,1.3a1.4,1.4,0,0,0,.3.15l14.93,4.75a.8.8,0,0,0,.21,0L291.82,331h.08l10.7.32h.08l12-.56h.14l10.85-1.92.1,0,15.81-4.48.17-.06,10.46-4.89.09-.05,9.32-5.32.1-.07,6.88-4.88.09-.07,7.57-6.49.07-.06,9.29-9.12,7-7.34a1.15,1.15,0,0,0,.14-.17l6.77-9.48,7.19-9.4.08-.13,6.52-10.48,5.47-9.34a2.1,2.1,0,0,0,.13-.26l3.39-8.68,3.32-8.9a15.67,15.67,0,0,0,1-5.44v-52a9.51,9.51,0,0,0-.76-3.74l-4.45-10.39a2,2,0,0,1-.13-.44l-.8-4.39,4.51,4.38.06.05,8.88,7.72,10,10.34-9.07-19.06a1.08,1.08,0,0,0-.08-.19L430,146.11l-7.37-14.37-.05-.09-5-8.52,0-.08-6.31-9.55a1.09,1.09,0,0,0-.13-.17l-7.83-9L398,97.81a1.14,1.14,0,0,0-.19-.19l-2.42-2.07,10.26,3.23,7.92,2.11a1.69,1.69,0,0,1,.28.12l9.17,4.74L412.74,94.57l-.14-.18L400.77,81.81l-.06-.06-7.89-7.41a1.56,1.56,0,0,0-.2-.16L382.76,68l-6.29-4.44a.94.94,0,0,0-.22-.12l-11.31-4.9-5.89-2.8-4.95-2.66a1.33,1.33,0,0,1-.44-.38l-11.48-14.9a1.61,1.61,0,0,0-.22-.23L329,26.71,319.05,19l-5.21-3.65Z" transform="translate(-48.41 9.7)"/><polygon class="cls-3" points="264.2 115.88 287.29 112.75 267.66 129.09 259.58 130.83 264.2 115.88"/><path class="cls-4" d="M-312.38,426.68" transform="translate(-48.41 9.7)"/><path class="cls-5" d="M297,204.09c-1.21,3.42-6.42,4.33-11.63,2s-8.46-6.94-7.25-10.36,6.42-4.34,11.64-2S298.22,200.66,297,204.09Z" transform="translate(-48.41 9.7)"/><path class="cls-6" d="M286.06,199.26a11.44,11.44,0,0,0-.36-7.86,9.51,9.51,0,0,0-3.07-3.84" transform="translate(-48.41 9.7)"/><path class="cls-6" d="M284,199.62a11.35,11.35,0,0,0-1.77-7.62,8.86,8.86,0,0,0-3.7-3" transform="translate(-48.41 9.7)"/><path class="cls-6" d="M289.61,200.34a21.16,21.16,0,0,0,.67-4.44,21.55,21.55,0,0,0-1.33-8.34" transform="translate(-48.41 9.7)"/><path class="cls-6" d="M292.09,202.17a31.42,31.42,0,0,0,1.09-4.57,32,32,0,0,0,.12-9.08" transform="translate(-48.41 9.7)"/><path class="cls-6" d="M294.68,202.42a13.56,13.56,0,0,0,1.69-3.16,14.81,14.81,0,0,0,.84-6.39" transform="translate(-48.41 9.7)"/><ellipse class="cls-7" cx="236.65" cy="205.33" rx="1.21" ry="1.24"/><ellipse class="cls-7" cx="241.21" cy="211.55" rx="2.12" ry="1.75"/><path class="cls-5" d="M426.17,221.81c-19.58,94.77-94.33,164.05-185.61,164.05-106.12,0-192.15-95.54-192.15-213.39C48.41,127,61.2,84.93,83,50.32V50.2c-9.81,91.66,29.54,190.15,102.81,241.15,89.8,62.51,195.25,32.24,240.36-69.54Z" transform="translate(-48.41 9.7)"/></svg>